<svg t="1693990172638" class="icon" viewBox="0 0 1024 1024" version="1.1" xmlns="http://www.w3.org/2000/svg" p-id="1292" width="16" height="16"><path d="M598.228802 489.684532v-5.113067zM501.080535 808.739893a35.28016 35.28016 0 0 0 0-6.646987 35.28016 35.28016 0 0 1 0 6.646987z" fill="#707070" p-id="1293"></path><path d="M153.392 1024a153.392 153.392 0 0 1-153.392-153.392V410.431998a153.392 153.392 0 0 1 153.392-153.392h80.275147L435.633281 34.621597a102.261334 102.261334 0 0 1 153.392001 0L788.946189 257.039998H869.221336a153.392 153.392 0 0 1 153.392 153.392v460.176002a153.392 153.392 0 0 1-153.392 153.392zM76.696 410.431998v460.176002A76.696 76.696 0 0 0 153.392 947.304h715.829336a76.696 76.696 0 0 0 76.696-76.696V410.431998A76.696 76.696 0 0 0 869.221336 333.735998H153.392A76.696 76.696 0 0 0 76.696 410.431998z m608.454935-153.392l-153.392-170.776427a26.07664 26.07664 0 0 0-37.836694 0L337.462401 257.039998z" fill="#707070" p-id="1294"></path><path d="M498.524001 691.650666h-255.653334a38.348 38.348 0 0 0 0 76.696h255.653334a38.348 38.348 0 0 0 0-76.696z" fill="#707070" p-id="1295"></path><path d="M754.177336 487.127998h-511.306669a38.348 38.348 0 0 0 0 76.696001h511.306669a38.348 38.348 0 0 0 0-76.696001z" fill="#707070" p-id="1296"></path></svg>