<svg t="1693991185417" class="icon" viewBox="0 0 1024 1024" version="1.1" xmlns="http://www.w3.org/2000/svg" p-id="1655" width="16" height="16"><path d="M870.4 153.6V102.4a102.4 102.4 0 0 0-204.8 0v51.2H358.4V102.4a102.4 102.4 0 0 0-204.8 0v51.2a153.6 153.6 0 0 0-153.6 153.6v563.2a153.6 153.6 0 0 0 153.6 153.6h716.8a153.6 153.6 0 0 0 153.6-153.6V307.2a153.6 153.6 0 0 0-153.6-153.6z m-128-51.2a25.6 25.6 0 0 1 51.2 0v153.6a25.6 25.6 0 0 1-51.2 0z m-512 0a25.6 25.6 0 0 1 51.2 0v153.6a25.6 25.6 0 0 1-51.2 0z m716.8 768a76.8 76.8 0 0 1-76.8 76.8H153.6A76.8 76.8 0 0 1 76.8 870.4V307.2A76.8 76.8 0 0 1 153.6 230.4V256a102.4 102.4 0 0 0 204.8 0v-25.6h307.2V256a102.4 102.4 0 0 0 204.8 0v-25.6A76.8 76.8 0 0 1 947.2 307.2z" fill="#4B8EE6" p-id="1656"></path><path d="M629.248 751.616a38.4 38.4 0 0 1-12.288-51.2 38.912 38.912 0 0 1 51.2-12.288l26.624 16.896 55.808-59.904a38.4 38.4 0 1 1 56.32 51.2l-99.328 106.496zM243.2 768a38.4 38.4 0 0 1 0-76.8h256a38.4 38.4 0 0 1 0 76.8h-256z" fill="#2EA7E0" p-id="1657"></path><path d="M499.2 563.2h-256a38.4 38.4 0 0 1 0-76.8h256a38.4 38.4 0 0 1 0 76.8z" fill="#2EA7E0" p-id="1658"></path><path d="M709.632 597.504l-80.384-51.2a38.4 38.4 0 0 1-12.288-51.2 38.912 38.912 0 0 1 51.2-12.288l26.624 16.896 57.856-60.928a38.4 38.4 0 1 1 56.32 51.2z" fill="#2EA7E0" p-id="1659"></path></svg>